<svg width="800" height="400" viewBox="0 0 800 400" xmlns="http://www.w3.org/2000/svg"><defs><pattern id="satori_pattern_id_0" x="0" y="0" width="1" height="1" patternUnits="objectBoundingBox"><linearGradient id="satori_biid_0" x1="0" y1="0" x2="0" y2="1"><stop offset="0%" stop-color="#BCFCC9"/><stop offset="100%" stop-color="#F2FECA"/></linearGradient><rect x="0" y="0" width="800" height="400" fill="url(#satori_biid_0)"/></pattern></defs><rect x="0" y="0" width="800" height="400" fill="url(#satori_pattern_id_0)"/><clipPath id="satori_bct-id-0"><path d="M247.7 232.4L238.6 232.4L238.6 187.4L247.6 187.4L247.6 192.9L248.0 192.9Q248.6 191.6 249.7 190.2Q250.9 188.9 252.7 187.9Q254.5 187.0 257.3 187.0L257.3 187.0Q260.9 187.0 263.9 188.9Q266.9 190.7 268.7 194.5Q270.5 198.2 270.5 203.8L270.5 203.8Q270.5 209.3 268.8 213.1Q267.0 216.8 264.0 218.8Q261.0 220.7 257.3 220.7L257.3 220.7Q254.6 220.7 252.8 219.8Q250.9 218.9 249.8 217.6Q248.6 216.3 248.0 214.9L248.0 214.9L247.7 214.9L247.7 232.4ZM247.5 203.8L247.5 203.8Q247.5 206.7 248.3 208.9Q249.1 211.1 250.7 212.3Q252.2 213.5 254.4 213.5L254.4 213.5Q256.6 213.5 258.1 212.2Q259.7 211.0 260.5 208.8Q261.3 206.7 261.3 203.8L261.3 203.8Q261.3 201.0 260.5 198.8Q259.7 196.7 258.2 195.4Q256.6 194.2 254.4 194.2L254.4 194.2Q252.2 194.2 250.6 195.4Q249.1 196.6 248.3 198.7Q247.5 200.9 247.5 203.8ZM283.9 220.8L283.9 220.8Q280.8 220.8 278.3 219.7Q275.9 218.6 274.5 216.4Q273.0 214.3 273.0 211.0L273.0 211.0Q273.0 208.3 274.0 206.4Q275.0 204.6 276.8 203.5Q278.5 202.3 280.7 201.8Q282.9 201.2 285.3 200.9L285.3 200.9Q288.2 200.6 289.9 200.4Q291.7 200.1 292.5 199.6Q293.3 199.0 293.3 198.0L293.3 198.0L293.3 197.9Q293.3 195.8 292.0 194.7Q290.7 193.6 288.4 193.6L288.4 193.6Q285.9 193.6 284.5 194.7Q283.0 195.8 282.6 197.4L282.6 197.4L274.2 196.7Q274.8 193.7 276.7 191.6Q278.6 189.4 281.5 188.2Q284.5 187.0 288.4 187.0L288.4 187.0Q291.2 187.0 293.7 187.6Q296.2 188.3 298.1 189.6Q300.1 191.0 301.2 193.1Q302.3 195.2 302.3 198.1L302.3 198.1L302.3 220.2L293.7 220.2L293.7 215.6L293.5 215.6Q292.7 217.2 291.4 218.3Q290.0 219.5 288.2 220.1Q286.3 220.8 283.9 220.8ZM286.5 214.5L286.5 214.5Q288.5 214.5 290.0 213.7Q291.6 212.9 292.4 211.6Q293.3 210.2 293.3 208.5L293.3 208.5L293.3 205.0Q292.9 205.3 292.2 205.5Q291.4 205.7 290.5 205.9Q289.6 206.1 288.7 206.2Q287.8 206.4 287.0 206.5L287.0 206.5Q285.4 206.7 284.2 207.2Q283.0 207.7 282.4 208.6Q281.7 209.4 281.7 210.7L281.7 210.7Q281.7 212.6 283.1 213.5Q284.4 214.5 286.5 214.5ZM334.6 196.8L334.6 196.8L326.3 197.3Q326.1 196.2 325.4 195.3Q324.7 194.5 323.5 194.0Q322.4 193.4 320.8 193.4L320.8 193.4Q318.7 193.4 317.3 194.3Q315.8 195.2 315.8 196.7L315.8 196.7Q315.8 197.9 316.8 198.7Q317.7 199.5 320.0 200.0L320.0 200.0L325.9 201.2Q330.7 202.1 333.0 204.3Q335.4 206.5 335.4 210.0L335.4 210.0Q335.4 213.2 333.5 215.7Q331.6 218.1 328.3 219.4Q325.0 220.8 320.8 220.8L320.8 220.8Q314.3 220.8 310.4 218.1Q306.6 215.4 305.9 210.7L305.9 210.7L314.9 210.2Q315.3 212.2 316.8 213.2Q318.4 214.3 320.8 214.3L320.8 214.3Q323.2 214.3 324.7 213.3Q326.1 212.4 326.1 210.9L326.1 210.9Q326.1 209.7 325.1 208.9Q324.1 208.1 321.9 207.7L321.9 207.7L316.3 206.5Q311.5 205.6 309.1 203.2Q306.8 200.9 306.8 197.2L306.8 197.2Q306.8 194.0 308.5 191.8Q310.2 189.5 313.4 188.2Q316.5 187.0 320.7 187.0L320.7 187.0Q326.9 187.0 330.4 189.6Q334.0 192.2 334.6 196.8ZM366.3 196.8L366.3 196.8L358.0 197.3Q357.8 196.2 357.1 195.3Q356.4 194.5 355.3 194.0Q354.1 193.4 352.5 193.4L352.5 193.4Q350.4 193.4 349.0 194.3Q347.5 195.2 347.5 196.7L347.5 196.7Q347.5 197.9 348.5 198.7Q349.4 199.5 351.7 200.0L351.7 200.0L357.6 201.2Q362.4 202.1 364.7 204.3Q367.1 206.5 367.1 210.0L367.1 210.0Q367.1 213.2 365.2 215.7Q363.3 218.1 360.0 219.4Q356.8 220.8 352.5 220.8L352.5 220.8Q346.0 220.8 342.1 218.1Q338.3 215.4 337.6 210.7L337.6 210.7L346.6 210.2Q347.0 212.2 348.5 213.2Q350.1 214.3 352.5 214.3L352.5 214.3Q354.9 214.3 356.4 213.3Q357.8 212.4 357.8 210.9L357.8 210.9Q357.8 209.7 356.8 208.9Q355.8 208.1 353.6 207.7L353.6 207.7L348.0 206.5Q343.2 205.6 340.9 203.2Q338.5 200.9 338.5 197.2L338.5 197.2Q338.5 194.0 340.2 191.8Q341.9 189.5 345.1 188.2Q348.2 187.0 352.4 187.0L352.4 187.0Q358.6 187.0 362.2 189.6Q365.7 192.2 366.3 196.8ZM385.7 220.8L385.7 220.8Q380.7 220.8 377.0 218.7Q373.4 216.7 371.4 212.9Q369.5 209.1 369.5 203.9L369.5 203.9Q369.5 198.9 371.4 195.1Q373.4 191.3 377.0 189.1Q380.5 187.0 385.4 187.0L385.4 187.0Q388.6 187.0 391.4 188.0Q394.2 189.1 396.3 191.1Q398.4 193.2 399.6 196.3Q400.7 199.5 400.7 203.6L400.7 203.6L400.7 206.1L373.1 206.1L373.1 200.5L392.2 200.5Q392.2 198.5 391.3 197.0Q390.5 195.5 389.0 194.6Q387.5 193.8 385.5 193.8L385.5 193.8Q383.4 193.8 381.8 194.7Q380.3 195.7 379.4 197.3Q378.5 198.9 378.4 200.8L378.4 200.8L378.4 206.1Q378.4 208.6 379.4 210.3Q380.3 212.1 381.9 213.1Q383.6 214.0 385.9 214.0L385.9 214.0Q387.4 214.0 388.6 213.6Q389.9 213.2 390.8 212.3Q391.7 211.5 392.1 210.2L392.1 210.2L400.5 210.8Q399.9 213.8 397.9 216.1Q396.0 218.3 392.9 219.6Q389.8 220.8 385.7 220.8ZM413.7 220.2L404.7 220.2L404.7 187.4L413.5 187.4L413.5 193.1L413.8 193.1Q414.7 190.1 416.8 188.5Q418.9 187.0 421.7 187.0L421.7 187.0Q422.3 187.0 423.1 187.0Q423.9 187.1 424.5 187.3L424.5 187.3L424.5 195.3Q423.9 195.1 422.7 195.0Q421.6 194.8 420.7 194.8L420.7 194.8Q418.7 194.8 417.1 195.7Q415.5 196.6 414.6 198.1Q413.7 199.6 413.7 201.6L413.7 201.6L413.7 220.2ZM426.7 198.6L446.6 198.6L446.6 205.8L426.7 205.8L426.7 198.6ZM452.3 176.5L461.4 176.5L461.4 220.2L452.3 220.2L452.3 176.5ZM475.7 220.2L466.7 220.2L466.7 187.4L475.7 187.4L475.7 220.2ZM471.2 183.2L471.2 183.2Q469.2 183.2 467.8 181.9Q466.3 180.5 466.3 178.6L466.3 178.6Q466.3 176.7 467.8 175.4Q469.2 174.0 471.2 174.0L471.2 174.0Q473.3 174.0 474.7 175.4Q476.1 176.7 476.1 178.6L476.1 178.6Q476.1 180.5 474.7 181.9Q473.3 183.2 471.2 183.2ZM490.1 220.2L481.0 220.2L481.0 187.4L489.6 187.4L489.6 193.2L490.0 193.2Q491.0 190.3 493.4 188.7Q495.8 187.0 499.1 187.0L499.1 187.0Q502.5 187.0 504.9 188.7Q507.2 190.4 508.0 193.2L508.0 193.2L508.4 193.2Q509.4 190.4 512.0 188.7Q514.6 187.0 518.2 187.0L518.2 187.0Q522.8 187.0 525.7 189.9Q528.5 192.8 528.5 198.2L528.5 198.2L528.5 220.2L519.5 220.2L519.5 199.9Q519.5 197.2 518.0 195.8Q516.6 194.5 514.4 194.5L514.4 194.5Q512.0 194.5 510.6 196.1Q509.2 197.6 509.2 200.2L509.2 200.2L509.2 220.2L500.4 220.2L500.4 199.7Q500.4 197.3 499.0 195.9Q497.6 194.5 495.4 194.5L495.4 194.5Q493.9 194.5 492.7 195.2Q491.5 196.0 490.8 197.4Q490.1 198.7 490.1 200.5L490.1 200.5L490.1 220.2ZM548.6 220.8L548.6 220.8Q543.6 220.8 539.9 218.7Q536.3 216.7 534.3 212.9Q532.4 209.1 532.4 203.9L532.4 203.9Q532.4 198.9 534.3 195.1Q536.3 191.3 539.9 189.1Q543.4 187.0 548.3 187.0L548.3 187.0Q551.5 187.0 554.3 188.0Q557.1 189.1 559.2 191.1Q561.3 193.2 562.5 196.3Q563.6 199.5 563.6 203.6L563.6 203.6L563.6 206.1L536.0 206.1L536.0 200.5L555.1 200.5Q555.1 198.5 554.2 197.0Q553.4 195.5 551.9 194.6Q550.4 193.8 548.4 193.8L548.4 193.8Q546.3 193.8 544.8 194.7Q543.2 195.7 542.3 197.3Q541.4 198.9 541.4 200.8L541.4 200.8L541.4 206.1Q541.4 208.6 542.3 210.3Q543.2 212.1 544.8 213.1Q546.5 214.0 548.8 214.0L548.8 214.0Q550.3 214.0 551.5 213.6Q552.8 213.2 553.7 212.3Q554.6 211.5 555.1 210.2L555.1 210.2L563.5 210.8Q562.8 213.8 560.8 216.1Q558.9 218.3 555.8 219.6Q552.7 220.8 548.6 220.8Z "/></clipPath><defs><pattern id="satori_pattern_id-0_0" x="0" y="0" width="1" height="1" patternUnits="objectBoundingBox"><linearGradient id="satori_biid-0_0" x1="0" y1="0" x2="1" y2="0"><stop offset="0%" stop-color="#4A3333"/><stop offset="100%" stop-color="#98Dd33"/></linearGradient><rect x="0" y="0" width="330" height="72" fill="url(#satori_biid-0_0)"/></pattern></defs><rect x="235" y="164" width="330" height="72" fill="url(#satori_pattern_id-0_0)" clip-path="url(#satori_bct-id-0)"/></svg>